<?xml version="1.0" encoding="utf-8"?>
<!-- Generator: Adobe Illustrator 23.1.0, SVG Export Plug-In . SVG Version: 6.00 Build 0)  -->
<svg version="1.1" xmlns="http://www.w3.org/2000/svg" xmlns:xlink="http://www.w3.org/1999/xlink" x="0px" y="0px"
	 viewBox="0 0 800 800" style="enable-background:new 0 0 800 800;" xml:space="preserve">
<style type="text/css">
	.st0{fill:#F3F3F3;}
	.st1{fill:#FFFFFF;}
	.st2{fill:#838383;}
	.st3{fill:none;stroke:#838383;stroke-width:6;stroke-linecap:round;stroke-linejoin:round;stroke-miterlimit:10;}
</style>
<g id="暂无内容">
</g>
<g id="图层_2">
</g>
<g id="图层_3">
</g>
<g id="图层_4">
</g>
<g id="图层_5">
	<g>
		<g>
			<g>
				<g>
					<circle class="st0" cx="671.47" cy="176.53" r="19.78"/>
				</g>
			</g>
			<g>
				<g>
					<circle class="st0" cx="103.35" cy="628.33" r="19.78"/>
				</g>
			</g>
			<g>
				<g>
					<path class="st0" d="M224.48,690.33c-7.38,0-13.38-6-13.38-13.38c0-7.38,6-13.38,13.38-13.38c7.38,0,13.38,6,13.38,13.38
						C237.86,684.33,231.86,690.33,224.48,690.33z M224.48,670c-3.83,0-6.95,3.12-6.95,6.95c0,3.83,3.12,6.95,6.95,6.95
						c3.83,0,6.95-3.12,6.95-6.95C231.43,673.12,228.31,670,224.48,670z"/>
				</g>
			</g>
			<g>
				<g>
					<path class="st0" d="M602.91,117.19h-19.98V97.21c0-3.66-2.96-6.62-6.62-6.62c-3.66,0-6.62,2.96-6.62,6.62v19.98h-19.98
						c-3.66,0-6.62,2.96-6.62,6.62c0,3.66,2.96,6.62,6.62,6.62h19.98v19.98c0,3.66,2.96,6.62,6.62,6.62c3.66,0,6.62-2.96,6.62-6.62
						v-19.98h19.98c3.66,0,6.62-2.96,6.62-6.62C609.53,120.15,606.57,117.19,602.91,117.19z"/>
				</g>
			</g>
			<g>
				<g>
					<path class="st0" d="M660.49,694.22h-14.84v-14.84c0-3.04-2.47-5.51-5.51-5.51c-3.04,0-5.51,2.47-5.51,5.51v14.84H619.8
						c-3.04,0-5.51,2.47-5.51,5.51s2.47,5.51,5.51,5.51h14.84v14.84c0,3.04,2.47,5.51,5.51,5.51c3.04,0,5.51-2.47,5.51-5.51v-14.84
						h14.84c3.04,0,5.51-2.47,5.51-5.51S663.53,694.22,660.49,694.22z"/>
				</g>
			</g>
			<g>
				<g>
					<path class="st0" d="M125.42,132.64c8.7,8.7,22.82,8.7,31.52,0l0,0c8.7-8.7,8.7-22.82,0-31.52l-6.66-6.66
						c-8.7-8.7-22.82-8.7-31.52,0h0c-8.7,8.7-8.7,22.82,0,31.52L125.42,132.64z"/>
				</g>
			</g>
			<g>
				<g>
					<path class="st0" d="M240.14,124.58c3.97,3.97,10.41,3.97,14.38,0c3.97-3.97,3.97-10.41,0-14.38l-10.01-10.01
						c-3.97-3.97-10.41-3.97-14.38,0c-3.97,3.97-3.97,10.41,0,14.38L240.14,124.58z"/>
				</g>
			</g>
			<g>
				<g>
					<path class="st0" d="M89.07,325.3c3.97,3.97,10.41,3.97,14.38,0h0c3.97-3.97,3.97-10.41,0-14.38l-10.01-10.01
						c-3.97-3.97-10.41-3.97-14.38,0c-3.97,3.97-3.97,10.41,0,14.38L89.07,325.3z"/>
				</g>
			</g>
			<g>
				<g>
					<path class="st0" d="M617.04,632.76c-3.97-3.97-10.41-3.97-14.38,0c-3.97,3.97-3.97,10.41,0,14.38l10.01,10.01
						c3.97,3.97,10.41,3.97,14.38,0c3.97-3.97,3.97-10.41,0-14.38L617.04,632.76z"/>
				</g>
			</g>
			<g>
				<g>
					<circle class="st0" cx="704.65" cy="641.25" r="32.77"/>
				</g>
			</g>
			<g>
				<g>
					<path class="st0" d="M705.3,489.3l-31.51-31.51l-19.97-21.27c-5.17-5.43-5.24-13.94-0.16-19.46l0,0
						c5.55-6.03,15.04-6.14,20.72-0.23l4.04,4.41l9.32,9.32c5.41,5.41,14.29,5.82,19.8,0.51c5.61-5.41,5.68-14.35,0.19-19.84
						l-18.63-18.63c-6.88-6.88-11.36-15.82-12.66-25.46c-18.22-135.39-134.2-239.79-274.58-239.79c-4.79,0-9.55,0.13-14.28,0.37
						c-5.11,0.26-10.1-1.61-13.71-5.23l-19.14-19.14c-8.55-8.55-22.47-9.18-31.32-0.94c-9.29,8.65-9.48,23.19-0.59,32.09l3.34,3.34
						l10.41,10.94c6.54,6.92,5.57,18-2.08,23.68c-6.51,4.83-14.68,3.26-20.19-2.69l-20.69-20.46l-18.04-18.04
						c-3.83-3.83-10.06-4.28-14.13-0.71c-4.46,3.92-4.62,10.71-0.49,14.84l13.14,13.14l8.56,8.24c8.7,8.52,8.89,21.8,0.24,30.36l0,0
						c-8.59,8.49-22.45,8.38-30.89-0.26l-14.74-15.33l-35.31-35.31c-8.7-8.7-22.82-8.7-31.52,0h0c-8.7,8.7-8.7,22.82,0,31.52
						l25.61,25.69l8.98,8.38c8.49,8.43,8.69,22.09,0.45,30.76l0,0c-8.82,9.29-23.69,9.11-32.28-0.4l-4.96-5.44l-15.36-15.44
						c-12.62-12.62-33.2-13.4-46.16-1.12c-13.45,12.73-13.67,33.97-0.66,46.98l37.34,37.33l17.8,17.59
						c6.71,6.64,6.5,17.55-0.46,23.93l0,0c-6.58,6.03-16.76,5.75-22.99-0.63l-5.35-5.55l-8.11-8.11c-3.97-3.97-10.41-3.97-14.38,0h0
						c-5.06,4.2-3.69,10.69,0.06,14.44l17.79,17.79l36.99,36.09c6.38,6.22,6.41,16.47,0.08,22.73l0,0
						c-6.18,6.11-16.12,6.15-22.34,0.08l-17.67-17.24l-25.96-25.96c-5.41-5.41-14.29-5.82-19.8-0.51
						c-5.61,5.41-5.68,14.35-0.19,19.84l43.89,43.89c3.55,3.55,5.91,8.11,6.84,13.05c23.49,124.93,130.8,220.27,261.3,225.36
						c7.2,0.28,14.06,3.16,19.28,8.14c8.46,8.08,20.27,19.34,20.27,19.34c8.55,8.55,22.47,9.18,31.32,0.94
						c9.29-8.65,9.48-23.19,0.59-32.09l-2.26-2.26l-9.81-10.24c-5.59-6.06-5.03-15.55,1.23-20.92h0c5.93-5.08,14.81-4.58,20.13,1.13
						l20.22,21.22l22.02,22.02c8.9,8.89,23.44,8.7,32.09-0.58c8.24-8.84,7.6-22.77-0.94-31.32l-9.5-9.5c0,0-3.02-3.11-6.89-7.09
						c-9.03-9.28-8.71-24.16,0.7-33.05l0.48-0.45c9.02-8.52,23.15-8.43,32.07,0.2l13.82,13.38l5.91,5.91
						c3.83,3.83,10.07,4.28,14.13,0.71c4.46-3.92,4.62-10.71,0.49-14.84l-5.15-5.15c-0.94,0.44-20.83-20.04-32.63-32.32
						c-4.75-4.94-4.56-12.79,0.41-17.5l0,0c4.95-4.69,12.77-4.47,17.45,0.48l31.03,32.82l14.15,14.15
						c12.62,12.62,33.19,13.4,46.16,1.13c13.45-12.73,13.67-33.97,0.66-46.98l-22.57-22.57l-11.4-12.43
						c-5.57-6.02-5.32-15.38,0.56-21.1h0c6.11-5.94,15.92-5.64,21.67,0.65l2.92,3.4l14.64,14.65c8.9,8.9,23.44,8.7,32.09-0.58
						C714.48,511.77,713.85,497.84,705.3,489.3z"/>
				</g>
			</g>
			<g>
				<g>
					<path class="st1" d="M432.79,208.32h-14.84v-14.84c0-3.04-2.47-5.51-5.51-5.51c-3.04,0-5.51,2.47-5.51,5.51v14.84h-14.84
						c-3.04,0-5.51,2.47-5.51,5.51s2.47,5.51,5.51,5.51h14.84v14.84c0,3.04,2.47,5.51,5.51,5.51c3.04,0,5.51-2.47,5.51-5.51v-14.84
						h14.84c3.04,0,5.51-2.47,5.51-5.51S435.84,208.32,432.79,208.32z"/>
				</g>
			</g>
			<g>
				<g>
					<path class="st1" d="M588.55,426.86c-7.38,0-13.38-6-13.38-13.38c0-7.38,6-13.38,13.38-13.38s13.38,6,13.38,13.38
						C601.93,420.86,595.93,426.86,588.55,426.86z M588.55,406.53c-3.83,0-6.95,3.12-6.95,6.95c0,3.83,3.12,6.95,6.95,6.95
						c3.83,0,6.95-3.12,6.95-6.95C595.5,409.65,592.38,406.53,588.55,406.53z"/>
				</g>
			</g>
			<g>
				<g>
					<path class="st1" d="M225.9,528.9c-7.38,0-13.38-6-13.38-13.38c0-7.38,6-13.38,13.38-13.38c7.38,0,13.38,6,13.38,13.38
						C239.28,522.89,233.28,528.9,225.9,528.9z M225.9,508.56c-3.83,0-6.95,3.12-6.95,6.95c0,3.83,3.12,6.95,6.95,6.95
						c3.83,0,6.95-3.12,6.95-6.95C232.85,511.68,229.73,508.56,225.9,508.56z"/>
				</g>
			</g>
		</g>
		<g>
			<g>
				<g>
					<path class="st2" d="M496.35,291.68c-0.77,0-1.54-0.3-2.13-0.89l-81.51-82.34l-85.29,81.97c-1.2,1.15-3.09,1.11-4.24-0.08
						c-1.15-1.2-1.11-3.09,0.08-4.24l87.43-84.01c1.18-1.14,3.06-1.11,4.21,0.05l83.59,84.44c1.17,1.18,1.16,3.08-0.02,4.24
						C497.88,291.39,497.11,291.68,496.35,291.68z"/>
				</g>
			</g>
			<g>
				<g>
					<path class="st1" d="M585.27,570.21H239.4c-17.08,0-30.92-13.84-30.92-30.92V314.93c0-17.08,13.84-30.92,30.92-30.92h345.87
						c17.08,0,30.92,13.84,30.92,30.92v224.36C616.19,556.37,602.34,570.21,585.27,570.21z"/>
				</g>
			</g>
			<g>
				<g>
					<path class="st2" d="M585.27,573.21H239.4c-18.7,0-33.92-15.22-33.92-33.92V314.93c0-18.7,15.22-33.92,33.92-33.92h345.87
						c18.7,0,33.92,15.22,33.92,33.92v224.36C619.19,557.99,603.97,573.21,585.27,573.21z M239.4,287.01
						c-15.4,0-27.92,12.52-27.92,27.92v224.36c0,15.4,12.53,27.92,27.92,27.92h345.87c15.4,0,27.92-12.52,27.92-27.92V314.93
						c0-15.4-12.52-27.92-27.92-27.92H239.4z"/>
				</g>
			</g>
			<g>
				<g>
					<circle class="st1" cx="412.55" cy="206.8" r="16.53"/>
				</g>
			</g>
			<g>
				<g>
					<path class="st2" d="M412.55,226.32c-10.77,0-19.53-8.76-19.53-19.53s8.76-19.53,19.53-19.53s19.53,8.76,19.53,19.53
						S423.31,226.32,412.55,226.32z M412.55,193.27c-7.46,0-13.53,6.07-13.53,13.53s6.07,13.53,13.53,13.53s13.53-6.07,13.53-13.53
						S420.01,193.27,412.55,193.27z"/>
				</g>
			</g>
			<g>
				<g>
					<path class="st2" d="M534.72,542.36c-4.57,0-8.91-1.72-12.24-4.85l-37.92-35.69c-17.59,12.46-38.24,19.03-59.87,19.03
						c-57.28,0-103.88-46.6-103.88-103.88c0-57.28,46.6-103.88,103.88-103.88s103.88,46.6,103.88,103.88
						c0,21.49-6.49,42.01-18.8,59.53l37.19,35l0,0c3.47,3.27,5.47,7.7,5.61,12.47c0.14,4.77-1.58,9.31-4.85,12.78
						C544.37,540.31,539.62,542.36,534.72,542.36z M484.8,494.92c0.74,0,1.48,0.27,2.06,0.82l39.73,37.4
						c2.21,2.08,5.1,3.22,8.13,3.22c3.31,0,6.38-1.33,8.64-3.73c2.17-2.31,3.31-5.32,3.22-8.49s-1.42-6.11-3.73-8.28l-39.11-36.81
						c-1.11-1.04-1.26-2.75-0.36-3.97c12.55-16.94,19.18-37.04,19.18-58.13c0-53.97-43.91-97.88-97.88-97.88
						c-53.97,0-97.88,43.91-97.88,97.88c0,53.97,43.91,97.88,97.88,97.88c21.17,0,41.34-6.68,58.33-19.32
						C483.55,495.12,484.17,494.92,484.8,494.92z M424.69,491.12c-40.89,0-74.16-33.27-74.16-74.16c0-40.89,33.27-74.16,74.16-74.16
						s74.16,33.27,74.16,74.16C498.85,457.85,465.58,491.12,424.69,491.12z M424.69,348.79c-37.58,0-68.16,30.58-68.16,68.16
						c0,37.58,30.58,68.16,68.16,68.16s68.16-30.58,68.16-68.16C492.85,379.37,462.27,348.79,424.69,348.79z"/>
				</g>
			</g>
		</g>
	</g>
</g>
<g id="图层_6">
</g>
<g id="图层_7">
</g>
</svg>
